HIERARCHY
ROOT Hips
{
	OFFSET 0.00000 0.00000 0.00000
	CHANNELS 6 Xposition Yposition Zposition Yrotation Zrotation Xrotation 
	JOINT Lumbar
	{
		OFFSET 0 0 0
		CHANNELS 3 Zrotation Xrotation Yrotation
		JOINT Neck
		{
			OFFSET 0.00 0.2701 0.00
			CHANNELS 3 Zrotation Xrotation Yrotation
			End Site
			{
				OFFSET 0.00 0.1379 0.00
			}
		}
		JOINT RightShoulder
		{
			OFFSET 0.0119 0.2289 0.1181
			CHANNELS 3 Zrotation Xrotation Yrotation
			JOINT RightElbow
			{
				OFFSET 0.00 -0.1475 0.00
				CHANNELS 2 Zrotation Yrotation
				JOINT RightWrist
				{
					OFFSET 0.00 -0.1605 0.00
					CHANNELS 2 Zrotation Xrotation
					End Site
					{
						OFFSET 0.0040 -0.1068 0.0006
					}
				}
			}
		}
		JOINT LeftShoulder
		{
			OFFSET 0.0119 0.2289 -0.1181
			CHANNELS 3 Zrotation Xrotation Yrotation
			JOINT LeftElbow
			{
				OFFSET 0.00 -0.1475 0.00
				CHANNELS 2 Zrotation Yrotation
				JOINT LeftWrist
				{
					OFFSET 0.00 -0.1605 0.00
					CHANNELS 2 Zrotation Xrotation
					End Site
					{
						OFFSET 0.0040 -0.1068 -0.0006
					}
				}
			}
		}
	}
	JOINT RightHip
	{
		OFFSET 0.0316 -0.0424 0.0458
		CHANNELS 3 Zrotation Xrotation Yrotation
		JOINT RightKnee
		{
			OFFSET 0.00 -0.2438 0.00
			CHANNELS 1 Zrotation
			JOINT RightAnkle
			{
				OFFSET 0.00 -0.2449 0.00
				CHANNELS 3 Zrotation Xrotation Yrotation
				End Site
				{
					OFFSET 0.1237 -0.0542 0.0051
				}
			}
		}
	}
	JOINT LeftHip
	{
		OFFSET 0.0316 -0.0424 -0.0458
		CHANNELS 3 Zrotation Xrotation Yrotation
		JOINT LeftKnee
		{
			OFFSET 0.00 -0.2438 0.00
			CHANNELS 1 Zrotation
			JOINT LeftAnkle
			{
				OFFSET 0.00 -0.2449 0.00
				CHANNELS 3 Zrotation Xrotation Yrotation
				End Site
				{
					OFFSET 0.1237 -0.0542 -0.0051
				}
			}
		}
	}
}
MOTION
Frames: 30
Frame Time: 0.02
0.00037 -0 -0.00277 -14.76287 -23.34655 0.97478 45.9096 2.26517 -6.09833 -14.11959 -4.09603 -1.33344 -24.0281 -11.3149 -1.24874 37.41076 89.27078 6.90392 0.03924 -28.23138 11.63629 -1.12357 40.964 -127.86933 17.90795 -7.01649 35.73472 -0.20219 -10.14524 -20.06601 -7.23012 -2.49605 -3.48389 36.14185 7.07686 4.38397 -26.72395 -8.48675 3.91462 4.22549
0.00022 -4e-05 -0.00206 -14.66046 -23.50249 0.92108 45.96786 2.2009 -6.30099 -14.12308 -4.13658 -1.33434 -24.05625 -11.24967 -1.15338 37.48414 89.26726 6.89306 0.04211 -28.2276 11.78421 -1.19947 40.95511 -124.29323 17.20423 -6.30691 35.90689 -0.16193 -10.54552 -20.11573 -7.22807 -2.47578 -3.47302 36.33451 7.30177 4.76341 -26.75972 -8.43478 3.86193 4.19773
7e-05 -9e-05 -0.00135 -14.55812 -23.65782 0.86749 46.02547 2.13663 -6.50318 -14.12654 -4.1771 -1.33526 -24.08441 -11.18447 -1.05835 37.55734 89.26375 6.88227 0.04497 -28.22367 11.93201 -1.27505 40.9462 -120.72801 16.50265 -5.59956 36.07837 -0.12164 -10.94517 -20.1653 -7.22602 -2.45554 -3.46217 36.52646 7.52647 5.14263 -26.79535 -8.38289 3.8093 4.16999
-8e-05 -0.00013 -0.00064 -14.45598 -23.81324 0.81395 46.08348 2.07253 -6.70526 -14.13002 -4.21753 -1.33616 -24.11249 -11.11942 -0.96329 37.63051 89.26023 6.87144 0.04784 -28.21989 12.07953 -1.35072 40.93734 -117.16271 15.80106 -4.89214 36.24996 -0.08148 -11.34432 -20.21487 -7.22397 -2.43533 -3.45134 36.7185 7.75077 5.5211 -26.83101 -8.33107 3.75675 4.1423
-0.00023 -0.00017 7e-05 -14.35385 -23.96935 0.76032 46.14232 2.00848 -6.90771 -14.13355 -4.25799 -1.33701 -24.1405 -11.05441 -0.86788 37.70386 89.2567 6.86055 0.05073 -28.21629 12.22707 -1.42668 40.92851 -113.58708 15.09746 -4.18255 36.42234 -0.0414 -11.74386 -20.2646 -7.22194 -2.41511 -3.4405 36.91134 7.97509 5.8993 -26.86683 -8.27919 3.70422 4.11461
-0.00039 -0.00022 0.00079 -14.25111 -24.12305 0.70683 46.19733 1.94376 -7.10934 -14.13688 -4.29863 -1.33808 -24.16898 -10.98882 -0.77363 37.77674 89.25324 6.84996 0.05352 -28.21166 12.37539 -1.50145 40.91939 -110.04425 14.40023 -3.48 36.59195 -0.00067 -12.14369 -20.31384 -7.21984 -2.39483 -3.42964 37.10144 8.20056 6.28056 -26.90203 -8.22731 3.65139 4.08678
-0.00054 -0.00026 0.00149 -14.14968 -24.28134 0.65311 46.25997 1.88046 -7.31247 -14.14059 -4.33882 -1.33872 -24.19648 -10.92445 -0.67721 37.85045 89.24964 6.83875 0.05651 -28.20918 12.52196 -1.57863 40.91093 -106.43818 13.69066 -2.76388 36.76682 0.03868 -12.54257 -20.36399 -7.21789 -2.37468 -3.41881 37.29672 8.42352 6.65557 -26.93845 -8.17546 3.59917 4.05925
-0.00069 -0.00031 0.00221 -14.04707 -24.43557 0.59963 46.31559 1.81585 -7.51406 -14.14396 -4.37949 -1.33976 -24.22492 -10.85901 -0.58265 37.92346 89.24615 6.82818 0.05932 -28.20456 12.67017 -1.65343 40.90173 -102.89251 12.993 -2.0606 36.93706 0.07937 -12.94219 -20.41332 -7.2158 -2.35442 -3.40797 37.48745 8.6487 7.03575 -26.97374 -8.12363 3.54644 4.03147
-0.00085 -0.00035 0.00294 -13.94282 -24.58419 0.5463 46.36253 1.7496 -7.71454 -14.14686 -4.42053 -1.34129 -24.2544 -10.79196 -0.49089 37.99538 89.24287 6.81809 0.06188 -28.19792 12.8204 -1.72594 40.89217 -99.41086 12.30752 -1.37145 37.10079 0.12145 -13.34351 -20.46162 -7.21355 -2.33398 -3.39707 37.67176 8.87713 7.42492 -27.00769 -8.0716 3.49284 4.00325
-0.00097 -0.00038 0.00358 -13.84743 -24.76314 0.49168 46.45911 1.69268 -7.92374 -14.15231 -4.45877 -1.33998 -24.27758 -10.73326 -0.38461 38.07287 89.23861 6.80433 0.06581 -28.20471 12.95908 -1.81353 40.88631 -95.53129 11.54479 -0.59626 37.29945 0.1548 -13.73748 -20.51577 -7.21223 -2.31442 -3.38638 37.89043 9.08849 7.77046 -27.04945 -8.02007 3.44351 3.97716
-0.00118 -0.00045 0.00441 -13.73375 -24.87935 0.44006 46.4512 1.61613 -8.11302 -14.15249 -4.50336 -1.34467 -24.31423 -10.65756 -0.30798 38.13907 89.23629 6.79889 0.06687 -28.18203 13.12203 -1.86808 40.87159 -92.51043 10.94967 -0.00565 37.42601 0.20702 -14.14532 -20.55759 -7.20893 -2.29314 -3.37531 38.03825 9.33477 8.20275 -27.0747 -7.96791 3.38568 3.94684
-0.00164 -0.00063 0.00575 -13.56581 -24.81141 0.39458 46.1516 1.48465 -8.25936 -14.13714 -4.56189 -1.36583 -24.38691 -10.52992 -0.32117 38.17054 89.24068 6.81193 0.05987 -28.08687 13.3531 -1.84142 40.84069 -91.70369 10.77953 0.09997 37.33993 0.30763 -14.60577 -20.56514 -7.20027 -2.26582 -3.36258 37.97635 9.68638 8.91755 -27.05433 -7.91047 3.30029 3.90256
-0.00221 -0.00085 0.00729 -13.38023 -24.68278 0.3526 45.74799 1.33369 -8.3834 -14.11674 -4.6275 -1.39298 -24.47333 -10.38646 -0.3624 38.19154 89.24696 6.83414 0.05001 -27.96047 13.60823 -1.78012 40.79928 -91.78049 10.78317 0.01721 37.18427 0.42768 -15.07773 -20.5604 -7.18958 -2.23698 -3.34956 37.84625 10.07092 9.70995 -27.01743 -7.85316 3.20729 3.85452
-0.00273 -0.00105 0.00875 -13.20542 -24.58965 0.31028 45.39526 1.19225 -8.51015 -14.09929 -4.6921 -1.41737 -24.55405 -10.25332 -0.38545 38.21954 89.25123 6.85501 0.04159 -27.84305 13.85136 -1.72812 40.75747 -91.55233 10.73138 0.00545 37.07001 0.54117 -15.53462 -20.56154 -7.17977 -2.20974 -3.33708 37.7572 10.43465 10.43947 -26.9883 -7.79797 3.12039 3.80962
-0.00323 -0.00124 0.01016 -13.01906 -24.46262 0.26231 45.02714 1.04776 -8.66873 -14.07889 -4.7472 -1.442 -24.63239 -10.10579 -0.43214 38.23732 89.25956 6.86397 0.03259 -27.74803 14.09913 -1.70204 40.73789 -90.93916 10.58468 0.05118 36.91403 0.64558 -16.03204 -20.56134 -7.17021 -2.17877 -3.32291 37.62509 10.82463 11.29101 -26.95808 -7.73312 3.02182 3.7584
-0.00381 -0.00146 0.01172 -12.85241 -24.39226 0.2274 44.66632 0.90526 -8.75506 -14.06367 -4.82398 -1.46747 -24.71906 -9.98592 -0.43546 38.27486 89.26089 6.89989 0.02411 -27.59842 14.34284 -1.61528 40.66902 -91.31114 10.67169 -0.06272 36.82882 0.77293 -16.44906 -20.56109 -7.15959 -2.15504 -3.31211 37.56709 11.16586 11.90019 -26.92621 -7.689 2.94638 3.71978
-0.00456 -0.00172 0.01365 -12.74561 -24.48944 0.22372 44.35197 0.77105 -8.65311 -14.06199 -4.95705 -1.49441 -24.82416 -9.93417 -0.3191 38.36096 89.23365 7.00829 0.01775 -27.31041 14.56993 -1.35682 40.47095 -94.41246 11.40586 -0.61221 36.95296 0.96374 -16.62888 -20.56324 -7.14696 -2.15341 -3.31155 37.72544 11.38101 11.88021 -26.89396 -7.69677 2.9311 3.71393
-0.00538 -0.00201 0.01573 -12.65875 -24.64634 0.23384 44.04827 0.64002 -8.47824 -14.06611 -5.11199 -1.52188 -24.93715 -9.91315 -0.15707 38.46867 89.20082 7.14346 0.012 -26.96776 14.79182 -1.04098 40.22298 -98.43466 12.36136 -1.30858 37.15117 1.17611 -16.7289 -20.56582 -7.13326 -2.15889 -3.31428 37.96155 11.54331 11.6047 -26.8606 -7.72624 2.94021 3.72131
-0.00618 -0.00229 0.01775 -12.56246 -24.7786 0.24024 43.73939 0.5087 -8.33283 -14.06885 -5.25824 -1.54871 -25.04762 -9.88588 -0.01109 38.5724 89.17644 7.26616 0.00598 -26.64693 15.01604 -0.75952 39.99484 -101.88439 13.18584 -1.9103 37.31767 1.3753 -16.8746 -20.56857 -7.11975 -2.15984 -3.31488 38.1655 11.71838 11.40473 -26.82769 -7.74945 2.94207 3.72468
-0.00697 -0.00256 0.01975 -12.46842 -24.8988 0.23587 43.429 0.37132 -8.20173 -14.06597 -5.39974 -1.5774 -25.15503 -9.8251 0.11507 38.65211 89.12765 7.3904 -0.00012 -26.33736 15.24206 -0.44126 39.7778 -106.00563 14.14303 -2.63465 37.47404 1.58914 -16.98422 -20.56952 -7.10738 -2.16578 -3.31796 38.35415 11.94029 11.37014 -26.79449 -7.75807 2.92832 3.71994
-0.00778 -0.00285 0.02181 -12.37304 -25.05834 0.25732 43.12475 0.24819 -8.02435 -14.07641 -5.55586 -1.6023 -25.26932 -9.8421 0.29245 38.78588 89.12779 7.51776 -0.00593 -25.99221 15.46173 -0.18713 39.52662 -108.94714 14.87641 -3.13819 37.66931 1.77772 -17.14578 -20.5743 -7.09246 -2.16358 -3.3169 38.59338 12.05389 10.9403 -26.7618 -7.80143 2.95194 3.73473
-0.00859 -0.00319 0.02402 -12.28293 -25.31809 0.3452 42.84327 0.15855 -7.7322 -14.12099 -5.74969 -1.61644 -25.41055 -10.06245 0.61093 39.07331 89.2694 7.64632 -0.01083 -25.55944 15.67414 -0.11891 39.18741 -108.30093 14.91732 -2.9763 37.9594 1.88781 -17.50585 -20.59112 -7.07034 -2.13234 -3.3013 38.9589 11.86162 9.38622 -26.73214 -7.94253 3.08186 3.80501
-0.0094 -0.00355 0.02629 -12.18822 -25.6142 0.45883 42.56672 0.08427 -7.39697 -14.17919 -5.95664 -1.62674 -25.55633 -10.36082 0.97742 39.41202 89.45955 7.77723 -0.01551 -25.09396 15.87847 -0.11853 38.81669 -106.45148 14.72852 -2.58993 38.28478 1.9722 -17.91459 -20.61151 -7.04576 -2.09351 -3.28183 39.37172 11.56548 7.45987 -26.70342 -8.11658 3.24698 3.89365
-0.01021 -0.0039 0.02852 -12.08671 -25.89034 0.56159 42.28271 0.00629 -7.08477 -14.23177 -6.15612 -1.63888 -25.69376 -10.62611 1.31503 39.72176 89.62414 7.90752 -0.02046 -24.64474 16.08056 -0.09041 38.46444 -105.21628 14.657 -2.31819 38.59152 2.07063 -18.27717 -20.62939 -7.02264 -2.06135 -3.26567 39.75977 11.32993 5.76699 -26.67278 -8.27077 3.39002 3.97072
-0.01104 -0.00426 0.03078 -12.02371 -26.18444 0.66134 42.02038 -0.08575 -6.75555 -14.28144 -6.36392 -1.65067 -25.85882 -10.88245 1.68426 40.05873 89.80313 8.03672 -0.02469 -24.1855 16.30771 -0.04641 38.09312 -103.72628 14.53789 -1.99807 38.91433 2.16021 -18.73696 -20.65126 -6.99813 -2.01602 -3.24314 40.1651 11.03694 3.79681 -26.64613 -8.44602 3.55931 4.06175
-0.01183 -0.0046 0.033 -11.87878 -26.44729 0.77329 41.7148 -0.14449 -6.45238 -14.34122 -6.55574 -1.66224 -25.96625 -11.17553 1.99813 40.34768 89.96398 8.16856 -0.03036 -23.74283 16.48047 -0.05334 37.75442 -102.4727 14.46171 -1.72395 39.20789 2.26141 -19.00875 -20.66535 -6.97581 -1.99602 -3.23281 40.54368 10.8385 2.31536 -26.61423 -8.58537 3.68227 4.12808
-0.01262 -0.00491 0.03508 -11.51216 -26.62904 0.91249 41.28165 -0.11861 -6.23276 -14.41795 -6.71207 -1.67431 -25.92217 -11.55065 2.1487 40.51833 90.06382 8.30623 -0.03961 -23.33156 16.50794 -0.17598 37.5164 -102.12445 14.54739 -1.62574 39.43871 2.40444 -18.73368 -20.65978 -6.9614 -2.0496 -3.25815 40.84581 10.93632 2.30949 -26.5457 -8.61381 3.66588 4.12013
-0.01337 -0.00521 0.03711 -11.0628 -26.77499 1.06301 40.80628 -0.05914 -6.04071 -14.50573 -6.8492 -1.68626 -25.81812 -11.95965 2.24072 40.63345 90.14575 8.44687 -0.04993 -22.9431 16.48044 -0.34909 37.31227 -102.05495 14.68486 -1.58126 39.63316 2.55931 -18.27114 -20.64563 -6.94909 -2.12853 -3.29568 41.11789 11.13141 2.80382 -26.4775 -8.60556 3.60203 4.08693
-0.01409 -0.0055 0.03917 -10.64862 -26.92801 1.20842 40.35447 -0.01265 -5.83614 -14.59347 -6.98766 -1.69816 -25.73596 -12.35361 2.35935 40.75672 90.23257 8.5861 -0.06068 -22.55846 16.47617 -0.50526 37.09064 -101.88537 14.8067 -1.51624 39.82686 2.70639 -17.90509 -20.63379 -6.93499 -2.1947 -3.32696 41.39675 11.27572 3.04656 -26.42157 -8.61643 3.56161 4.06629
-0.01501 -0.00581 0.04123 -10.24334 -27.12187 1.35473 39.88348 0.02495 -5.63127 -14.66084 -7.15917 -1.7104 -25.67722 -12.7501 2.48259 40.95524 90.32598 8.72416 -0.06952 -22.11051 16.47891 -0.63969 36.87566 -101.57767 14.88983 -1.42989 40.0963 2.86276 -17.49274 -20.62931 -6.92425 -2.26596 -3.36116 41.70406 11.44378 3.37554 -26.30689 -8.61815 3.51461 4.04176
